<svg xmlns="http://www.w3.org/2000/svg" viewBox="0 0 128 128" role="img" aria-label="Musican Manager">
  <defs>
    <linearGradient id="mmg" x1="0" y1="0" x2="1" y2="1">
      <stop offset="0" stop-color="#c4b5fd"/>
      <stop offset="0.55" stop-color="#a78bfa"/>
      <stop offset="1" stop-color="#60a5fa"/>
    </linearGradient>
    <linearGradient id="mmb" x1="0" y1="1" x2="1" y2="0">
      <stop offset="0" stop-color="#2d1b69"/>
      <stop offset="1" stop-color="#1f1147"/>
    </linearGradient>
    <filter id="mmShadow" x="-30%" y="-30%" width="160%" height="160%">
      <feDropShadow dx="0" dy="2" stdDeviation="2" flood-color="#0b0424" flood-opacity="0.55"/>
    </filter>
  </defs>

  <circle cx="64" cy="64" r="54" fill="url(#mmb)"/>

  <g fill="url(#mmg)" filter="url(#mmShadow)">
    <rect x="60" y="6" width="8" height="14" rx="3"/>
    <rect x="60" y="108" width="8" height="14" rx="3"/>
    <rect x="6" y="60" width="14" height="8" rx="3"/>
    <rect x="108" y="60" width="14" height="8" rx="3"/>
    <rect x="18.5" y="18.5" width="14" height="8" rx="3" transform="rotate(-45 25.5 22.5)"/>
    <rect x="95.5" y="18.5" width="14" height="8" rx="3" transform="rotate(45 102.5 22.5)"/>
    <rect x="18.5" y="101.5" width="14" height="8" rx="3" transform="rotate(45 25.5 105.5)"/>
    <rect x="95.5" y="101.5" width="14" height="8" rx="3" transform="rotate(-45 102.5 105.5)"/>
  </g>

  <circle cx="64" cy="64" r="44" fill="none" stroke="url(#mmg)" stroke-width="5" opacity="0.95"/>
  <circle cx="64" cy="64" r="32" fill="none" stroke="rgba(196,181,253,0.35)" stroke-width="3"/>

  <g fill="none" stroke="url(#mmg)" stroke-width="6" stroke-linecap="round" stroke-linejoin="round" filter="url(#mmShadow)">
    <path d="M76 32v46c0 8-6 14-14 14s-14-6-14-14 6-14 14-14c4 0 7 1 10 3V32h4z"/>
    <path d="M76 40c10 0 18 8 18 18 0 6-3 11-8 14"/>
  </g>

  <circle cx="62" cy="78" r="8" fill="url(#mmg)" filter="url(#mmShadow)"/>
</svg>
